<svg width="35" height="33" viewBox="0 0 35 33" fill="none" xmlns="http://www.w3.org/2000/svg">
<path d="M25.4087 0.5C22.3743 0.5 19.4621 1.91253 17.5613 4.14469C15.6604 1.91253 12.7482 0.5 9.71384 0.5C4.34272 0.5 0.122559 4.72016 0.122559 10.0913C0.122559 16.6831 6.05171 22.0542 15.0326 30.2155L17.5613 32.5L20.0899 30.1981C29.0708 22.0542 34.9999 16.6831 34.9999 10.0913C34.9999 4.72016 30.7798 0.5 25.4087 0.5ZM17.7356 27.6172L17.5613 27.7916L17.3869 27.6172C9.08605 20.1011 3.6103 15.1311 3.6103 10.0913C3.6103 6.60354 6.2261 3.98774 9.71384 3.98774C12.3994 3.98774 15.0152 5.71417 15.9395 8.10327H19.2005C20.1073 5.71417 22.7231 3.98774 25.4087 3.98774C28.8964 3.98774 31.5122 6.60354 31.5122 10.0913C31.5122 15.1311 26.0365 20.1011 17.7356 27.6172Z" fill="url(#paint0_linear_197405_506)"/>
<defs>
<linearGradient id="paint0_linear_197405_506" x1="14.6952" y1="-3.34001" x2="64.9448" y2="3.91189" gradientUnits="userSpaceOnUse">
<stop stop-color="#002F52"/>
<stop offset="1" stop-color="#326589"/>
</linearGradient>
</defs>
</svg>
