<svg width="38" height="39" viewBox="0 0 38 39" fill="none" xmlns="http://www.w3.org/2000/svg">
<g clip-path="url(#clip0_197405_508)">
<path d="M28.5002 10.0003H25.3335C25.3335 6.50116 22.4993 3.66699 19.0002 3.66699C15.501 3.66699 12.6668 6.50116 12.6668 10.0003H9.50016C7.7585 10.0003 6.3335 11.4253 6.3335 13.167V32.167C6.3335 33.9087 7.7585 35.3337 9.50016 35.3337H28.5002C30.2418 35.3337 31.6668 33.9087 31.6668 32.167V13.167C31.6668 11.4253 30.2418 10.0003 28.5002 10.0003ZM19.0002 6.83366C20.7418 6.83366 22.1668 8.25866 22.1668 10.0003H15.8335C15.8335 8.25866 17.2585 6.83366 19.0002 6.83366ZM28.5002 32.167H9.50016V13.167H12.6668V16.3337C12.6668 17.2045 13.3793 17.917 14.2502 17.917C15.121 17.917 15.8335 17.2045 15.8335 16.3337V13.167H22.1668V16.3337C22.1668 17.2045 22.8793 17.917 23.7502 17.917C24.621 17.917 25.3335 17.2045 25.3335 16.3337V13.167H28.5002V32.167Z" fill="#002F52"/>
</g>
<defs>
<clipPath id="clip0_197405_508">
<rect width="38" height="38" fill="white" transform="translate(0 0.5)"/>
</clipPath>
</defs>
</svg>
